<?xml version="1.0" encoding="UTF-8"?>
<svg width="512pt" height="512pt" version="1.1" viewBox="0 0 512 512" xmlns="http://www.w3.org/2000/svg">
  <defs>
    <linearGradient id="icons-gradient" gradientUnits="userSpaceOnUse">
        <stop offset="0%"   stop-color="#93C5FD" /> <!-- blue-300 -->
        <stop offset="100%" stop-color="#1E293B" /> <!-- slate-800 -->
    </linearGradient>
</defs>
 <path d="m492.11 120.36-7.6797-13.301-33.289 19.219-55.016-95.289 32.016-18.484-7.6797-13.301-45.316 26.164 9.1914 15.914c-7.3477 0.51562-13.969 0.8125-20.051 0.8125-18.238 0-32.754-2.6562-56.535-8.2227-2.6992-0.63672-5.457-0.95703-8.1953-0.95703-23.68 0-39.516 22.836-45.227 32.656-10.945 18.82-14.445 24.93-17.93 31.023-3.0547 5.3359-6.1016 10.66-14.176 24.555l-11.188-6.6367-72.141 108.95h-49.172l-69.77 54.555 0.015625 0.019531h-0.078125v62.398h28.305v172.37h15.359v-172.37h292.8v172.37h15.359l0.003906-172.37h28.328v-62.398h-0.074219l0.078125-0.10156-70.086-54.473h-11.668l20.543-33.172-16.086-9.5352 0.84375-0.33984c9.4609-3.8359 18.176-5.0977 28.164-4.1797 1.8828 0.16797 3.8047 0.26172 5.7539 0.26172 14.078 0 27.562-4.7305 36.98-12.98 2.5742-2.2461 4.9062-4.0039 7.7891-5.8555l35.91-23.098 7.332 12.699zm-107.42 204.71h-349.44v-31.684h349.43zm-59.992-86.254 50.449 39.215h-330.28l50.145-39.215h33.715l-6.8203 10.301h-15.66v15.359h207.44v-15.359h-11.281l6.3789-10.301zm-7.1562-43.305-32.77 52.91-143.92-0.097656 74.93-113.15 9.0938 5.3945 13.758 9.375c-9.8711 8.3828-13.762 22.473-8.6406 35.109 4.7422 11.695 15.984 19.25 28.645 19.25 3.957 0 7.832-0.75391 11.52-2.2461l34.703-14.066zm76.43-50.781c-3.5469 2.2852-6.4141 4.4375-9.5898 7.2148-6.6602 5.8359-16.457 9.1797-26.863 9.1797-1.4805 0-2.9375-0.070312-4.3672-0.19922-12.621-1.1484-23.559 0.47656-35.324 5.2422l-53.438 21.652c-7.7109 3.1133-17.082-0.9375-20.164-8.5352-3.207-7.9102 0.625-16.953 8.5312-20.164l20.395-8.2734 51.734-23.691c2.0273-0.92578 3.5469-2.6875 4.1719-4.832 0.62109-2.1406 0.28516-4.4453-0.93359-6.3164l-1.4531-2.2422c-4.8164-7.4688-12.355-12.012-21.207-12.773-0.88672-0.082032-1.7656-0.11328-2.6328-0.11328-7.9258 0-15.008 3.1172-20.477 9.0195-4.8008 5.1758-9.0742 12.742-12.504 18.832-1.6094 2.8516-3.2734 5.7852-4.418 7.4336-2.3086 1.3828-8.4883 4.168-11.914 5.3516l-18.172-12.387c8.2109-14.148 11.289-19.516 14.383-24.898 3.4766-6.0781 6.9648-12.164 17.879-30.934 9.1016-15.668 21.047-25.016 31.945-25.016 1.5625 0 3.1328 0.18359 4.6914 0.54297 24.426 5.7227 40.418 8.6367 60.043 8.6367 8.4688 0 17.875-0.55859 28.559-1.4297l37.652 65.207zm-105.15-17.938c1.5859-2.4688 3.2148-4.7422 4.8008-6.457 2.5234-2.7188 5.625-4.1016 9.2148-4.1016 0.42578 0 0.85547 0.015625 1.2969 0.054687 1.75 0.15234 3.3398 0.58984 4.7617 1.3047z" fill="none" stroke-width="3" stroke="url(#icons-gradient)"/>
</svg>
